 <svg version="1.0" xmlns="http://www.w3.org/2000/svg" width="700.000000pt" height="700.000000pt" viewBox="0 0 700.000000 700.000000" preserveAspectRatio="xMidYMid meet">
<metadata>
Created by potrace 1.12, written by Peter Selinger 2001-2015
</metadata>
<g transform="translate(0.000000,700.000000) scale(0.100000,-0.100000)" fill="#000000" stroke="none">
<path d="M0 3500 l0 -3500 3500 0 3500 0 0 3500 0 3500 -3500 0 -3500 0 0
-3500z m5819 3146 c21 -19 21 -22 23 -1255 l3 -1236 245 -5 c135 -3 253 -9
262 -14 31 -14 41 -81 36 -236 -5 -146 -13 -180 -45 -196 -28 -14 -1564 -17
-1613 -4 -52 14 -54 24 -55 237 0 152 2 174 18 190 16 16 45 19 275 23 l257 5
3 819 c1 480 -2 824 -7 829 -5 5 -19 6 -31 2 -23 -7 -178 -138 -215 -182 -22
-25 -142 -63 -197 -62 -18 0 -60 10 -93 22 -48 18 -64 29 -80 58 -60 107 -88
149 -110 163 -22 14 -25 24 -25 71 0 40 5 59 18 69 9 8 37 31 60 50 24 20 47
36 51 36 6 0 31 20 140 108 18 15 52 45 75 67 116 110 243 219 330 285 26 19
67 52 92 73 25 20 49 37 53 37 4 0 13 11 19 25 7 14 22 30 34 35 13 6 117 9
240 7 195 -3 219 -5 237 -21z m-4447 -644 c41 -23 72 -32 131 -37 72 -7 82
-11 113 -41 18 -19 40 -34 47 -34 8 0 31 -13 52 -30 21 -16 44 -30 52 -30 22
0 122 -105 135 -142 11 -34 45 -80 111 -148 26 -27 37 -48 37 -69 0 -20 11
-43 31 -66 20 -23 33 -49 36 -77 4 -30 14 -51 33 -69 20 -19 30 -41 36 -75 4
-31 17 -60 34 -80 21 -24 29 -47 34 -95 6 -49 14 -70 36 -96 24 -26 30 -45 36
-104 5 -57 12 -77 30 -94 30 -28 44 -66 44 -120 0 -32 7 -51 25 -73 32 -38 45
-74 45 -122 0 -27 8 -48 26 -69 27 -32 43 -83 44 -135 0 -17 12 -42 29 -62 25
-27 31 -46 37 -103 5 -58 11 -76 34 -100 20 -21 30 -43 34 -82 12 -91 17 -109
36 -119 22 -12 40 -61 40 -110 0 -26 9 -48 29 -73 21 -27 30 -52 35 -99 6 -48
14 -69 36 -94 22 -26 30 -46 35 -99 6 -53 13 -73 35 -97 27 -29 40 -72 40
-135 0 -22 10 -44 30 -67 25 -28 32 -46 37 -101 4 -49 12 -74 29 -95 30 -36
44 -72 44 -119 0 -26 9 -50 31 -79 22 -31 32 -56 36 -99 5 -44 13 -66 34 -90
21 -25 30 -47 35 -93 5 -45 14 -70 35 -96 22 -28 29 -50 35 -106 6 -58 12 -76
36 -103 23 -27 30 -46 35 -100 4 -49 12 -74 29 -95 30 -35 42 -67 42 -114 0
-23 7 -46 20 -59 31 -34 41 -61 48 -123 5 -46 13 -66 35 -89 23 -25 29 -43 35
-99 6 -55 13 -75 35 -101 23 -26 29 -45 35 -101 5 -56 12 -75 34 -99 19 -21
29 -44 32 -76 4 -37 13 -54 47 -89 l41 -42 182 1 c101 1 188 -2 194 -6 27 -19
32 -58 33 -300 2 -251 2 -252 -21 -270 -12 -10 -36 -33 -54 -51 -29 -30 -39
-34 -108 -41 -58 -5 -81 -12 -99 -29 -36 -34 -79 -42 -225 -42 -140 0 -181 9
-216 48 -12 14 -36 23 -73 28 -34 4 -64 15 -81 29 -15 13 -47 28 -71 35 -29 8
-48 20 -59 40 -9 15 -29 36 -44 45 -17 10 -31 30 -38 54 -5 21 -19 46 -30 56
-11 10 -27 43 -36 72 -9 29 -27 67 -41 84 -19 22 -27 45 -30 82 -6 78 -11 93
-38 126 -20 22 -27 43 -29 85 -2 31 -10 65 -20 78 -9 13 -23 32 -31 44 -9 12
-19 51 -23 87 -6 45 -16 77 -35 104 -18 25 -28 58 -33 98 -5 43 -15 72 -36
101 -22 31 -31 57 -36 111 -6 54 -14 77 -34 101 -20 24 -27 47 -33 102 -5 54
-13 78 -32 101 -27 31 -42 82 -43 138 0 24 -8 44 -26 62 -21 22 -29 44 -38
106 -8 61 -17 87 -38 111 -21 26 -28 47 -34 104 -6 58 -12 76 -32 95 -25 23
-41 77 -42 142 0 23 -9 44 -26 62 -28 29 -43 80 -44 145 0 31 -6 46 -29 68
-26 25 -30 37 -36 107 -7 77 -8 80 -46 110 -42 33 -59 31 -59 -6 0 -33 -17
-73 -44 -106 -15 -18 -26 -47 -31 -84 -5 -41 -14 -65 -36 -89 -18 -22 -29 -45
-29 -64 0 -40 -15 -78 -44 -112 -16 -20 -25 -46 -30 -91 -5 -52 -12 -69 -36
-94 -17 -17 -30 -42 -30 -55 0 -41 -18 -94 -45 -130 -15 -20 -25 -47 -25 -66
0 -44 -16 -83 -44 -109 -19 -17 -26 -37 -31 -90 -6 -53 -13 -74 -35 -99 -20
-22 -29 -45 -32 -82 -3 -37 -14 -64 -37 -96 -22 -30 -33 -60 -38 -96 -4 -36
-15 -64 -33 -88 -21 -25 -30 -51 -35 -95 -6 -47 -14 -68 -36 -94 -20 -23 -29
-43 -29 -68 0 -45 -14 -82 -44 -118 -17 -19 -26 -47 -31 -89 -5 -47 -14 -70
-35 -93 -21 -25 -29 -47 -35 -95 -6 -50 -14 -71 -36 -97 -16 -18 -29 -43 -29
-56 0 -43 -19 -90 -45 -114 -18 -18 -25 -34 -25 -62 -1 -62 -17 -112 -44 -138
-19 -17 -26 -34 -26 -60 0 -25 -8 -44 -25 -61 l-24 -24 -399 2 c-367 3 -400 4
-426 21 -21 14 -26 24 -22 40 4 12 13 53 21 92 10 54 19 73 39 88 19 14 26 28
26 52 0 42 15 84 41 111 11 12 24 47 30 85 8 49 17 70 38 89 21 19 30 37 33
72 4 34 14 57 35 81 21 24 32 49 37 84 4 32 17 64 36 89 19 25 32 57 36 89 5
33 15 57 32 74 17 17 28 43 34 76 5 35 16 57 36 76 22 21 30 40 35 78 4 33 17
67 37 95 18 27 33 64 37 92 4 32 15 57 33 76 19 19 30 44 34 77 5 35 14 55 35
73 23 21 29 37 35 86 5 45 14 70 36 97 18 23 32 54 36 83 4 31 16 57 34 77 19
21 29 45 34 80 5 37 14 57 35 77 21 20 29 39 34 80 4 35 16 67 35 94 17 23 32
61 36 88 5 33 16 54 35 72 21 19 30 37 34 75 5 37 15 60 37 85 17 20 30 46 30
62 0 46 19 98 45 122 17 16 27 39 31 74 5 36 15 57 34 75 20 19 29 39 32 73 4
34 14 57 35 82 23 25 32 48 37 90 6 42 15 66 37 90 20 23 31 49 36 82 4 34 14
56 34 74 20 18 29 39 34 79 4 30 15 61 25 71 39 39 44 62 43 183 -1 90 -6 124
-17 140 -9 12 -23 32 -32 44 -9 12 -18 49 -21 83 -5 49 -11 65 -31 81 -20 15
-27 33 -34 81 -4 34 -15 71 -23 83 -8 11 -22 30 -30 41 -9 12 -18 46 -22 75
-5 41 -13 60 -34 80 -22 21 -29 38 -35 89 -5 48 -13 70 -35 95 -15 17 -32 51
-38 74 -5 24 -21 55 -35 70 -14 15 -26 32 -26 38 0 19 -85 100 -130 125 -24
13 -52 29 -64 35 -15 9 -86 13 -247 13 -213 0 -227 -1 -244 -20 -29 -32 -58
-25 -92 24 l-31 43 4 185 c3 102 1 211 -4 244 -9 55 -8 62 21 117 36 68 52 77
140 77 51 0 69 5 102 27 52 35 121 43 357 38 187 -3 188 -4 240 -33z"></path>
</g>
</svg>